<svg width="199" height="50" viewBox="0 0 199 50" fill="none" xmlns="http://www.w3.org/2000/svg">
<path d="M50.5999 16.3H54.2V11.1H50.5999V5.7H44.2999V11.1H42.2V16.3H44.2999V28.9H50.5999V16.3ZM65.5 15.9C68.1 15.9 69.5999 17.7 69.5999 19.9C69.5999 22.1 68.1 23.9 65.5 23.9C62.9 23.9 61.4 22.2 61.4 19.9C61.4 17.8 62.7999 15.9 65.5 15.9ZM75.6999 11H69.4V12.7C68.1 11.1 65.9 10.4 63.9 10.4C58.6 10.4 55 14.8 55 19.9C55 25 58.7 29.4 64 29.4C66.1 29.4 68.3 28.6 69.4 26.8H69.5V28.8H75.6999V11ZM93.8 11.6C92 10.8 89.9 10.5 87.9 10.5C84 10.5 80 12.4 80 16.8C80 20 82 21 84 21.5C86 22 88 22.1 88 23.5C88 24.5 86.7999 24.9 86 24.9C84.4 24.9 82.2999 24 81 23.1L78.5999 27.4C80.7999 28.7 83.3 29.5 85.8 29.5C89.9 29.5 94.1999 27.6 94.1999 22.9C94.1999 19.6 92 18.2 89 17.6C88.0999 17.4 86.0999 17.3 86.0999 16C86.0999 15.1 87.3999 14.8 88.0999 14.8C89.1999 14.8 90.5 15.1 91.5 15.7L93.8 11.6ZM104.1 0H97.8V28.9H104.1V21.6L111 28.9H119.9L110.4 19.3L119.3 11.1H110.7L104.1 17.5V0Z" fill="#1C1F66"/>
<path d="M128 11H121.7V28.9H128V19.6C128 17.4 128.7 15.5 131.3 15.5C134.4 15.5 134.2 18.5 134.2 20.2V28.9H140.5V17.9C140.5 13.5 138.6 10.5 133.8 10.5C131.3 10.5 129.6 11.2 128.1 13.4H128V11ZM154 10.4C148.3 10.4 143.2 13.8 143.2 19.9C143.2 26 148.2 29.4 154 29.4C159.8 29.4 164.8 26 164.8 19.9C164.8 13.8 159.8 10.4 154 10.4ZM154 15.9C156.6 15.9 158.1 17.7 158.1 19.9C158.1 22.1 156.6 23.9 154 23.9C151.4 23.9 149.9 22.2 149.9 19.9C150 17.8 151.5 15.9 154 15.9ZM174.7 16.3H178.3V11.1H174.7V5.70001H168.4V11.1H166.3V16.3H168.4V28.9H174.7V16.3ZM185.4 17.4C185.8 15.6 187.3 14.6 189.2 14.6C190.9 14.6 192.5 15.7 192.8 17.4H185.4ZM198.5 20.4C198.5 14.3 194.9 10.5 188.7 10.5C182.9 10.5 178.8 14.1 178.8 20C178.8 26.2 183.2 29.5 189.1 29.5C191.2 29.5 193.2 29 194.8 28C196.4 27 197.7 25.5 198.2 23.4H192.1C191.4 24.6 190.4 25 189.1 25C186.5 25 185.1 23.6 185.1 21H198.4V20.4H198.5Z" fill="#808080"/>
<path fill-rule="evenodd" clip-rule="evenodd" d="M0.3 9.40001L9.7 0.200012L23.2 0.400012V8.10001L21.3 10L20.3 9.00001V3.20001L11.2 3.10001V11L3.2 10.9L3 25.9L15.7 26.1L18.6 29L0 28.9L0.3 9.40001ZM4.8 9.00001L9.1 4.80001V9.10001L4.8 9.00001Z" fill="#808080"/>
<path fill-rule="evenodd" clip-rule="evenodd" d="M31.6 1.79999L21.2 12L18.6 9.29999L16.7 11.2L21.2 15.8L33.5 3.69999L31.6 1.79999Z" fill="#808080"/>
<path fill-rule="evenodd" clip-rule="evenodd" d="M31.6 8.60001L21.2 18.9L18.6 16.2L16.7 18.1L21.2 22.6L33.5 10.5L31.6 8.60001Z" fill="#1C1F66"/>
<path fill-rule="evenodd" clip-rule="evenodd" d="M31.6 15.5L21.2 25.7L18.6 23L16.7 24.9L21.2 29.5L33.5 17.4L31.6 15.5Z" fill="#808080"/>
<path d="M8.91997 40.2C8.68997 40.64 8.30997 41 7.79997 41.27C7.28997 41.55 6.62997 41.68 5.82997 41.68H4.06997V45.63H2.46997V35.9H5.82997C6.57997 35.9 7.20997 36.03 7.72997 36.29C8.24997 36.55 8.63997 36.89 8.88997 37.33C9.14997 37.77 9.26997 38.26 9.26997 38.8C9.26997 39.3 9.14997 39.76 8.91997 40.2ZM7.17997 39.97C7.47997 39.69 7.62997 39.3 7.62997 38.8C7.62997 37.74 7.02997 37.2 5.81997 37.2H4.05997V40.38H5.81997C6.42997 40.38 6.87997 40.24 7.17997 39.97Z" fill="#808080"/>
<path d="M17.81 42.37H11.92C11.97 42.99 12.2 43.48 12.61 43.85C13.02 44.22 13.52 44.41 14.12 44.41C14.98 44.41 15.58 44.05 15.94 43.33H17.66C17.43 44.04 17 44.62 16.39 45.07C15.78 45.52 15.02 45.75 14.12 45.75C13.38 45.75 12.72 45.58 12.14 45.25C11.56 44.92 11.1 44.45 10.77 43.85C10.44 43.25 10.27 42.55 10.27 41.76C10.27 40.97 10.43 40.27 10.75 39.67C11.07 39.07 11.52 38.6 12.11 38.28C12.69 37.95 13.36 37.79 14.12 37.79C14.88 37.79 15.5 37.95 16.07 38.27C16.64 38.59 17.08 39.03 17.4 39.61C17.72 40.18 17.88 40.84 17.88 41.59C17.88 41.88 17.86 42.14 17.82 42.37H17.81ZM16.2 41.08C16.2 40.49 15.98 40.02 15.57 39.67C15.16 39.32 14.65 39.14 14.04 39.14C13.49 39.14 13.02 39.31 12.63 39.67C12.24 40.02 12.01 40.49 11.93 41.09H16.2V41.08Z" fill="#808080"/>
<path d="M20.7999 45.26C20.2099 44.93 19.7499 44.46 19.4099 43.86C19.0699 43.26 18.9099 42.56 18.9099 41.77C18.9099 40.98 19.0799 40.29 19.4299 39.68C19.7799 39.07 20.2499 38.61 20.8399 38.28C21.4399 37.95 22.0999 37.79 22.8399 37.79C23.5799 37.79 24.2399 37.95 24.8399 38.28C25.4399 38.61 25.9099 39.07 26.2499 39.68C26.5999 40.29 26.7699 40.98 26.7699 41.77C26.7699 42.56 26.5899 43.25 26.2399 43.86C25.8899 44.47 25.3999 44.94 24.7899 45.27C24.1799 45.6 23.4999 45.77 22.7699 45.77C22.0399 45.77 21.3799 45.6 20.7999 45.27V45.26ZM23.9299 44.08C24.2899 43.88 24.5799 43.59 24.8099 43.2C25.0299 42.81 25.1499 42.33 25.1499 41.77C25.1499 41.21 25.0399 40.74 24.8299 40.35C24.6199 39.96 24.3299 39.67 23.9799 39.47C23.6299 39.27 23.2399 39.18 22.8299 39.18C22.4199 39.18 22.0399 39.28 21.6899 39.47C21.3399 39.66 21.0599 39.96 20.8599 40.35C20.6499 40.74 20.5499 41.21 20.5499 41.77C20.5499 42.6 20.7599 43.24 21.1899 43.69C21.6099 44.14 22.1499 44.37 22.7899 44.37C23.1999 44.37 23.5899 44.27 23.9399 44.08H23.9299Z" fill="#808080"/>
<path d="M31.0599 38.16C31.5299 37.92 32.0499 37.8 32.6399 37.8C33.3099 37.8 33.9299 37.97 34.4799 38.3C35.0299 38.63 35.4699 39.1 35.7899 39.69C36.1099 40.29 36.2699 40.97 36.2699 41.75C36.2699 42.53 36.1099 43.22 35.7899 43.83C35.4699 44.44 35.0399 44.92 34.4799 45.26C33.9199 45.6 33.3099 45.77 32.6399 45.77C32.0499 45.77 31.5299 45.65 31.0699 45.41C30.6099 45.17 30.2399 44.88 29.9499 44.52V49.31H28.3499V37.93H29.9499V39.06C30.2199 38.71 30.5899 38.41 31.0599 38.16ZM34.3099 40.36C34.0899 39.97 33.7999 39.68 33.4399 39.48C33.0799 39.28 32.6999 39.18 32.2799 39.18C31.8599 39.18 31.4999 39.28 31.1399 39.49C30.7799 39.7 30.4899 39.99 30.2699 40.39C30.0499 40.78 29.9399 41.24 29.9399 41.78C29.9399 42.32 30.0499 42.78 30.2699 43.17C30.4899 43.57 30.7799 43.87 31.1399 44.07C31.4999 44.28 31.8799 44.38 32.2799 44.38C32.6799 44.38 33.0799 44.27 33.4399 44.06C33.7999 43.85 34.0899 43.54 34.3099 43.14C34.5299 42.74 34.6399 42.27 34.6399 41.74C34.6399 41.21 34.5299 40.75 34.3099 40.36Z" fill="#808080"/>
<path d="M39.4499 35.27V45.63H37.8499V35.27H39.4499Z" fill="#808080"/>
<path d="M48.56 42.37H42.67C42.72 42.99 42.95 43.48 43.36 43.85C43.77 44.22 44.27 44.41 44.87 44.41C45.73 44.41 46.33 44.05 46.69 43.33H48.41C48.18 44.04 47.75 44.62 47.14 45.07C46.53 45.52 45.77 45.75 44.87 45.75C44.13 45.75 43.47 45.58 42.89 45.25C42.31 44.92 41.85 44.45 41.52 43.85C41.19 43.25 41.02 42.55 41.02 41.76C41.02 40.97 41.18 40.27 41.5 39.67C41.82 39.07 42.27 38.6 42.86 38.28C43.44 37.95 44.11 37.79 44.87 37.79C45.63 37.79 46.25 37.95 46.82 38.27C47.39 38.59 47.83 39.03 48.15 39.61C48.47 40.18 48.63 40.84 48.63 41.59C48.63 41.88 48.61 42.14 48.57 42.37H48.56ZM46.95 41.08C46.95 40.49 46.73 40.02 46.32 39.67C45.91 39.32 45.4 39.14 44.79 39.14C44.24 39.14 43.77 39.31 43.38 39.67C42.99 40.02 42.76 40.49 42.68 41.09H46.95V41.08Z" fill="#808080"/>
<path d="M55.0799 42.55C54.7999 42.39 54.5799 42.17 54.4199 41.89C54.2599 41.61 54.1699 41.31 54.1699 40.97C54.1699 40.46 54.3499 40.02 54.6999 39.67C55.0499 39.32 55.4799 39.14 55.9899 39.14C56.4999 39.14 56.9499 39.32 57.3099 39.67C57.6599 40.02 57.8399 40.46 57.8399 40.97C57.8399 41.48 57.6599 41.92 57.3099 42.26C56.9599 42.61 56.5199 42.79 55.9899 42.79C55.6499 42.79 55.3499 42.71 55.0699 42.54L55.0799 42.55Z" fill="#808080"/>
<path d="M70.3899 40.2C70.1599 40.64 69.7799 41 69.2699 41.27C68.7599 41.55 68.0999 41.68 67.2999 41.68H65.5399V45.63H63.9399V35.9H67.2999C68.0499 35.9 68.6799 36.03 69.1999 36.29C69.7199 36.55 70.1099 36.89 70.3599 37.33C70.6199 37.77 70.7399 38.26 70.7399 38.8C70.7399 39.3 70.6199 39.76 70.3899 40.2ZM68.6499 39.97C68.9499 39.69 69.0999 39.3 69.0999 38.8C69.0999 37.74 68.4999 37.2 67.2899 37.2H65.5299V40.38H67.2899C67.8999 40.38 68.3499 40.24 68.6499 39.97Z" fill="#808080"/>
<path d="M74.79 38.12C75.18 37.9 75.64 37.79 76.17 37.79V39.44H75.76C75.14 39.44 74.66 39.6 74.34 39.92C74.02 40.24 73.86 40.79 73.86 41.57V45.63H72.26V37.92H73.86V39.04C74.09 38.65 74.4 38.34 74.79 38.12Z" fill="#808080"/>
<path d="M79.0099 45.26C78.4199 44.93 77.9599 44.46 77.6199 43.86C77.2799 43.26 77.1199 42.56 77.1199 41.77C77.1199 40.98 77.2899 40.29 77.6399 39.68C77.9899 39.07 78.4599 38.61 79.0499 38.28C79.6499 37.95 80.3099 37.79 81.0499 37.79C81.7899 37.79 82.4499 37.95 83.0499 38.28C83.6499 38.61 84.1199 39.07 84.4599 39.68C84.8099 40.29 84.9799 40.98 84.9799 41.77C84.9799 42.56 84.7999 43.25 84.4499 43.86C84.0999 44.47 83.6099 44.94 82.9999 45.27C82.3899 45.6 81.7099 45.77 80.9799 45.77C80.2499 45.77 79.5899 45.6 79.0099 45.27V45.26ZM82.1399 44.08C82.4999 43.88 82.7899 43.59 83.0199 43.2C83.2399 42.81 83.3599 42.33 83.3599 41.77C83.3599 41.21 83.2499 40.74 83.0399 40.35C82.8299 39.96 82.5399 39.67 82.1899 39.47C81.8399 39.27 81.4499 39.18 81.0399 39.18C80.6299 39.18 80.2499 39.28 79.8999 39.47C79.5499 39.66 79.2699 39.96 79.0699 40.35C78.8599 40.74 78.7599 41.21 78.7599 41.77C78.7599 42.6 78.9699 43.24 79.3999 43.69C79.8199 44.14 80.3599 44.37 80.9999 44.37C81.4099 44.37 81.7999 44.27 82.1499 44.08H82.1399Z" fill="#808080"/>
<path d="M86.52 39.68C86.84 39.08 87.28 38.62 87.84 38.29C88.39 37.96 89.01 37.79 89.69 37.79C90.19 37.79 90.69 37.9 91.18 38.12C91.67 38.34 92.06 38.63 92.35 39V35.28H93.96V45.64H92.35V44.48C92.09 44.85 91.73 45.16 91.27 45.4C90.81 45.64 90.28 45.76 89.68 45.76C89.01 45.76 88.39 45.59 87.84 45.25C87.28 44.91 86.85 44.43 86.52 43.82C86.2 43.21 86.04 42.52 86.04 41.74C86.04 40.96 86.2 40.28 86.52 39.68ZM92.02 40.38C91.8 39.99 91.51 39.69 91.16 39.48C90.81 39.27 90.42 39.17 90.01 39.17C89.6 39.17 89.22 39.27 88.86 39.47C88.51 39.67 88.22 39.97 88 40.35C87.78 40.74 87.67 41.2 87.67 41.73C87.67 42.26 87.78 42.73 88 43.13C88.22 43.53 88.51 43.84 88.87 44.05C89.23 44.26 89.61 44.37 90.01 44.37C90.41 44.37 90.8 44.27 91.16 44.06C91.52 43.85 91.8 43.55 92.02 43.16C92.24 42.77 92.35 42.3 92.35 41.77C92.35 41.24 92.24 40.78 92.02 40.38Z" fill="#808080"/>
<path d="M103.05 37.92V45.63H101.45V44.72C101.2 45.04 100.87 45.29 100.46 45.47C100.05 45.65 99.62 45.74 99.17 45.74C98.56 45.74 98.02 45.61 97.54 45.36C97.06 45.11 96.68 44.73 96.41 44.24C96.13 43.74 96 43.15 96 42.45V37.91H97.58V42.21C97.58 42.9 97.75 43.43 98.1 43.8C98.44 44.17 98.92 44.35 99.51 44.35C100.1 44.35 100.58 44.17 100.93 43.8C101.28 43.43 101.46 42.9 101.46 42.21V37.91H103.06L103.05 37.92Z" fill="#808080"/>
<path d="M105.1 39.68C105.42 39.08 105.87 38.61 106.44 38.29C107.01 37.96 107.66 37.8 108.4 37.8C109.33 37.8 110.11 38.02 110.72 38.47C111.33 38.92 111.74 39.55 111.96 40.37H110.24C110.1 39.99 109.88 39.69 109.57 39.47C109.26 39.25 108.87 39.15 108.41 39.15C107.76 39.15 107.24 39.38 106.85 39.84C106.46 40.3 106.27 40.95 106.27 41.78C106.27 42.61 106.46 43.26 106.85 43.73C107.24 44.2 107.76 44.43 108.41 44.43C109.33 44.43 109.95 44.02 110.24 43.21H111.96C111.74 43.99 111.32 44.62 110.7 45.08C110.08 45.54 109.32 45.77 108.4 45.77C107.66 45.77 107.01 45.6 106.44 45.27C105.87 44.94 105.43 44.47 105.1 43.87C104.78 43.27 104.62 42.57 104.62 41.78C104.62 40.99 104.78 40.29 105.1 39.69V39.68Z" fill="#808080"/>
<path d="M115.41 39.22V43.49C115.41 43.78 115.48 43.99 115.61 44.11C115.74 44.24 115.98 44.3 116.3 44.3H117.28V45.63H116.02C115.3 45.63 114.75 45.46 114.37 45.13C113.99 44.8 113.8 44.25 113.8 43.49V39.22H112.89V37.92H113.8V36H115.41V37.92H117.29V39.22H115.41Z" fill="#808080"/>
<path d="M118.84 36.6C118.64 36.4 118.55 36.16 118.55 35.87C118.55 35.58 118.65 35.34 118.84 35.14C119.04 34.94 119.28 34.85 119.57 34.85C119.86 34.85 120.09 34.95 120.28 35.14C120.48 35.34 120.57 35.58 120.57 35.87C120.57 36.16 120.47 36.4 120.28 36.6C120.08 36.8 119.85 36.89 119.57 36.89C119.29 36.89 119.04 36.79 118.84 36.6ZM120.35 37.92V45.63H118.75V37.92H120.35Z" fill="#808080"/>
<path d="M125.44 44.21L127.62 37.92H129.31L126.37 45.63H124.47L121.54 37.92H123.25L125.43 44.21H125.44Z" fill="#808080"/>
<path d="M130.6 36.6C130.4 36.4 130.31 36.16 130.31 35.87C130.31 35.58 130.41 35.34 130.6 35.14C130.8 34.94 131.04 34.85 131.33 34.85C131.62 34.85 131.85 34.95 132.04 35.14C132.24 35.34 132.33 35.58 132.33 35.87C132.33 36.16 132.23 36.4 132.04 36.6C131.84 36.8 131.61 36.89 131.33 36.89C131.05 36.89 130.8 36.79 130.6 36.6ZM132.11 37.92V45.63H130.51V37.92H132.11Z" fill="#808080"/>
<path d="M136.08 39.22V43.49C136.08 43.78 136.15 43.99 136.28 44.11C136.41 44.24 136.65 44.3 136.97 44.3H137.95V45.63H136.69C135.97 45.63 135.42 45.46 135.04 45.13C134.66 44.8 134.47 44.25 134.47 43.49V39.22H133.56V37.92H134.47V36H136.08V37.92H137.96V39.22H136.08Z" fill="#808080"/>
<path d="M146.37 37.92L141.64 49.26H139.99L141.56 45.51L138.52 37.92H140.3L142.47 43.8L144.72 37.92H146.37Z" fill="#808080"/>
<path d="M152.46 42.55C152.18 42.39 151.97 42.17 151.8 41.89C151.64 41.61 151.56 41.31 151.56 40.97C151.56 40.46 151.74 40.02 152.09 39.67C152.44 39.32 152.87 39.14 153.38 39.14C153.89 39.14 154.34 39.32 154.7 39.67C155.06 40.02 155.23 40.46 155.23 40.97C155.23 41.48 155.05 41.92 154.7 42.26C154.35 42.61 153.91 42.79 153.38 42.79C153.04 42.79 152.74 42.71 152.46 42.54V42.55Z" fill="#808080"/>
<path d="M167.77 40.2C167.54 40.64 167.16 41 166.65 41.27C166.14 41.55 165.48 41.68 164.68 41.68H162.92V45.63H161.32V35.9H164.68C165.43 35.9 166.06 36.03 166.58 36.29C167.1 36.55 167.49 36.89 167.74 37.33C167.99 37.77 168.12 38.26 168.12 38.8C168.12 39.3 168 39.76 167.77 40.2ZM166.03 39.97C166.33 39.69 166.48 39.3 166.48 38.8C166.48 37.74 165.88 37.2 164.67 37.2H162.91V40.38H164.67C165.28 40.38 165.73 40.24 166.03 39.97Z" fill="#808080"/>
<path d="M172.18 38.12C172.57 37.9 173.03 37.79 173.56 37.79V39.44H173.15C172.53 39.44 172.05 39.6 171.73 39.92C171.41 40.24 171.25 40.79 171.25 41.57V45.63H169.65V37.92H171.25V39.04C171.48 38.65 171.79 38.34 172.18 38.12Z" fill="#808080"/>
<path d="M176.4 45.26C175.81 44.93 175.35 44.46 175.01 43.86C174.67 43.26 174.51 42.56 174.51 41.77C174.51 40.98 174.68 40.29 175.03 39.68C175.38 39.07 175.85 38.61 176.44 38.28C177.04 37.95 177.7 37.79 178.44 37.79C179.18 37.79 179.84 37.95 180.44 38.28C181.04 38.61 181.51 39.07 181.85 39.68C182.2 40.29 182.37 40.98 182.37 41.77C182.37 42.56 182.19 43.25 181.84 43.86C181.49 44.47 181 44.94 180.39 45.27C179.78 45.6 179.1 45.77 178.37 45.77C177.64 45.77 176.98 45.6 176.4 45.27V45.26ZM179.53 44.08C179.89 43.88 180.18 43.59 180.41 43.2C180.63 42.81 180.75 42.33 180.75 41.77C180.75 41.21 180.64 40.74 180.43 40.35C180.22 39.96 179.93 39.67 179.58 39.47C179.23 39.27 178.84 39.18 178.43 39.18C178.02 39.18 177.64 39.28 177.29 39.47C176.94 39.67 176.66 39.96 176.46 40.35C176.25 40.74 176.15 41.21 176.15 41.77C176.15 42.6 176.36 43.24 176.79 43.69C177.21 44.14 177.75 44.37 178.39 44.37C178.8 44.37 179.18 44.27 179.54 44.08H179.53Z" fill="#808080"/>
<path d="M187.19 39.22H185.76V45.63H184.15V39.22H183.24V37.92H184.15V37.37C184.15 36.48 184.39 35.84 184.86 35.43C185.33 35.02 186.07 34.82 187.08 34.82V36.15C186.59 36.15 186.25 36.24 186.06 36.42C185.86 36.6 185.77 36.92 185.77 37.37V37.92H187.2V39.22H187.19Z" fill="#808080"/>
<path d="M188.69 36.6C188.49 36.4 188.4 36.16 188.4 35.87C188.4 35.58 188.5 35.34 188.69 35.14C188.89 34.94 189.13 34.85 189.42 34.85C189.71 34.85 189.94 34.95 190.13 35.14C190.33 35.34 190.42 35.58 190.42 35.87C190.42 36.16 190.32 36.4 190.13 36.6C189.93 36.8 189.7 36.89 189.42 36.89C189.14 36.89 188.89 36.79 188.69 36.6ZM190.2 37.92V45.63H188.6V37.92H190.2Z" fill="#808080"/>
<path d="M194.16 39.22V43.49C194.16 43.78 194.23 43.99 194.36 44.11C194.49 44.24 194.73 44.3 195.05 44.3H196.03V45.63H194.77C194.05 45.63 193.5 45.46 193.12 45.13C192.74 44.8 192.55 44.25 192.55 43.49V39.22H191.64V37.92H192.55V36H194.16V37.92H196.04V39.22H194.16Z" fill="#808080"/>
</svg>
